<?xml version="1.0" encoding="utf-8"?>
<!-- Generator: Adobe Illustrator 25.0.0, SVG Export Plug-In . SVG Version: 6.00 Build 0)  -->
<svg version="1.1" xmlns="http://www.w3.org/2000/svg" xmlns:xlink="http://www.w3.org/1999/xlink" x="0px" y="0px"
	 viewBox="0 0 841.89 595.28" style="enable-background:new 0 0 841.89 595.28;" xml:space="preserve">
<style type="text/css">
	.st0{fill:#E64A54;}
	.st1{fill:#FD8C87;}
	.st2{fill:#E68B7F;}
	.st3{fill:#AB54D1;}
	.st4{fill:url(#SVGID_1_);}
	.st5{fill:#FF3754;}
	.st6{fill:#FFAE8E;}
	.st7{fill:#B90083;}
	.st8{fill:url(#SVGID_2_);}
	.st9{fill:#FFFFFF;stroke:#000000;stroke-miterlimit:10;}
	.st10{fill:#00FF84;}
	.st11{fill:url(#SVGID_3_);}
	.st12{fill:url(#SVGID_4_);}
	.st13{fill:url(#SVGID_5_);}
	.st14{fill:url(#SVGID_6_);}
	.st15{fill:url(#SVGID_7_);}
	.st16{fill:url(#SVGID_8_);}
	.st17{fill:#FFFFFF;}
	.st18{fill:url(#SVGID_9_);}
	.st19{fill:url(#SVGID_10_);}
	.st20{fill:url(#SVGID_11_);}
	.st21{fill:url(#SVGID_12_);}
	.st22{fill:url(#SVGID_13_);}
	.st23{fill:url(#SVGID_14_);}
	.st24{fill:url(#SVGID_15_);}
	.st25{fill:url(#SVGID_16_);}
	.st26{fill:url(#SVGID_17_);}
	.st27{fill:url(#SVGID_18_);}
	.st28{fill:url(#SVGID_19_);}
</style>
<g id="Capa_2">
</g>
<g id="Capa_1">
	<g>
		<g>
			<path d="M265.31,359.81h-0.02v-9.08H269c2.95,0,4.18,1.48,4.18,4.25c0,3.21-1.57,4.87-4.31,4.87
				C267.85,359.86,265.97,359.85,265.31,359.81z M270.68,358.26c0.42-0.88,0.67-1.91,0.67-3.06c0-2.18-0.61-2.98-2.98-2.97
				c-0.38,0-0.79,0.02-1.26,0.03v6.04c0.56,0.05,1.2,0.06,1.83,0.06C269.39,358.36,270.07,358.33,270.68,358.26z"/>
			<path d="M280.91,351.36v-1.68h1.91v1.68H280.91z M280.99,359.81v-7.08h1.76v7.08H280.99z"/>
			<path d="M290.02,361.39c0-0.74,0.47-1.3,1.1-1.65c-0.27-0.2-0.38-0.5-0.38-0.86c0-0.56,0.36-1.03,0.89-1.33
				c-0.85-0.33-1.33-0.95-1.33-2.09c0-1.88,1.17-2.86,3.21-2.86c0.71,0,1.29,0.11,1.73,0.3l0.98-1.39l1.17,1.01
				c-0.39,0.45-0.89,0.76-1.39,0.92c0.42,0.47,0.61,1.12,0.61,1.94c0,1.59-1.26,2.45-3.27,2.45c-0.53,0-0.89,0.03-1.14,0.08
				c-0.05,0.11-0.08,0.23-0.08,0.38c0,0.38,0.24,0.56,0.74,0.56h2.18c1.33,0,2.07,0.59,2.07,1.77c0,1.6-0.97,2.38-3.98,2.38
				C290.74,362.99,290.02,362.46,290.02,361.39z M295.62,361.49c0.03-0.14,0.06-0.26,0.06-0.36c0-0.76-0.2-1.07-2.06-1.07
				c-1.1,0-1.69,0.08-2,0.18c-0.08,0.14-0.12,0.32-0.12,0.54c0,0.54,0.36,0.89,1.83,0.89C294.05,361.68,294.93,361.63,295.62,361.49
				z M292.02,354c-0.08,0.38-0.11,0.74-0.11,1.09c0,0.89,0.24,1.56,1.51,1.56c0.59,0,1.09-0.05,1.53-0.15
				c0.05-0.36,0.05-0.7,0.05-1.03c0-0.92-0.26-1.59-1.65-1.59C292.85,353.88,292.4,353.93,292.02,354z"/>
			<path d="M304.43,351.36v-1.68h1.91v1.68H304.43z M304.51,359.81v-7.08h1.76v7.08H304.51z"/>
			<path d="M316.44,352.73h2.78v1.47c-0.89,0-1.91-0.08-2.78-0.27v3.41c0,0.71,0.14,1.2,0.94,1.2c0.2,0,0.38-0.02,0.54-0.05
				c0.14-0.36,0.15-0.8,0.15-1.07h1.53c-0.02,1.69-0.73,2.56-2.56,2.56c-1.41,0-2.36-0.51-2.36-2.33v-3.51h-1.15v-1.39h1.15v-1.71
				h1.76V352.73z"/>
			<path d="M330.89,358.66c-0.73,0.8-1.47,1.3-2.48,1.3c-1.09,0-1.97-0.51-1.97-1.97c0-1.15,0.59-2.01,2.5-2.01h1.89v-0.88
				c0-0.82-0.32-1.27-1.14-1.27c-0.29,0-0.71,0.03-1.06,0.11c-0.05,0.24-0.05,0.47-0.05,0.71v0.33h-1.77
				c-0.02-0.09-0.02-0.18-0.02-0.27c0-1.42,1.06-2.16,3.01-2.16c1.79,0,2.75,0.65,2.75,2.21v3.19c0,0.38,0.08,0.59,0.48,0.59
				c0.14,0,0.27-0.02,0.41-0.03v1.38c-0.18,0.03-0.48,0.08-0.85,0.08C331.71,359.97,331.09,359.65,330.89,358.66z M330.65,358.15
				c0.14-0.48,0.18-1,0.18-1.57v-0.03c-0.68,0.32-1.85,0.29-2.59,0.45c-0.05,0.24-0.06,0.5-0.06,0.7c0,0.62,0.2,0.86,0.98,0.86
				C329.64,358.56,330.18,358.41,330.65,358.15z"/>
			<path d="M340.82,349.68h1.76v7.88c0,0.51,0.11,0.82,0.7,0.82c0.18,0,0.33-0.02,0.5-0.05v1.56c-0.21,0.05-0.47,0.08-0.88,0.08
				c-1.24,0-2.07-0.45-2.07-2.07V349.68z"/>
			<path d="M359.74,350.73h7.23v1.6c-0.91,0-1.8-0.06-2.71-0.15v7.63h-1.82v-7.48h-2.71V350.73z"/>
			<path d="M377.69,358.44c0.05-0.26,0.05-0.51,0.06-0.74h1.6v0.2c0,1.47-0.89,2.1-2.92,2.1c-2.13,0-3.34-0.92-3.34-3.59
				c0-2.44,1.14-3.86,3.44-3.86c1.98,0,2.91,1.1,2.91,3.03c0,0.32-0.03,0.67-0.08,1.03h-4.52c0.06,1.15,0.41,2,1.8,2
				C377.01,358.6,377.39,358.56,377.69,358.44z M375.12,353.97c-0.23,0.68-0.29,1.41-0.3,2.06c0.89-0.24,1.88-0.38,2.94-0.41
				c-0.02-1.27-0.39-1.77-1.47-1.77C375.86,353.85,375.48,353.88,375.12,353.97z"/>
			<path d="M391.36,358.42c0.05-0.33,0.06-0.65,0.06-0.89h1.68c0.06,1.66-0.8,2.47-2.86,2.47c-2.15,0-3.41-0.79-3.41-3.59
				c0-2.44,1.17-3.86,3.51-3.86c2.03,0,2.85,1.1,2.74,3.15h-1.68c0-1.3-0.26-1.65-1.27-1.65c-0.45,0-0.85,0.05-1.23,0.12
				c-0.21,0.67-0.27,1.36-0.27,2c0,1.32,0.23,2.36,1.69,2.36C390.73,358.53,391.03,358.51,391.36,358.42z"/>
			<path d="M402.61,359.81h-1.76v-10.14h1.76v4.48c0.83-0.92,1.63-1.57,2.75-1.57c0.89,0,1.79,0.61,1.79,2.1v5.13h-1.76v-4.57
				c0-0.7-0.32-1.06-0.98-1.06c-0.47,0-1.01,0.26-1.63,0.76c-0.15,0.48-0.17,1-0.17,1.57V359.81z"/>
			<path d="M417.03,359.81h-1.76v-7.08h1.76v1.42c0.83-0.92,1.63-1.57,2.75-1.57c0.89,0,1.79,0.61,1.79,2.1v5.13h-1.76v-4.57
				c0-0.7-0.32-1.06-0.98-1.06c-0.47,0-1.01,0.26-1.63,0.76c-0.15,0.48-0.17,1-0.17,1.57V359.81z"/>
			<path d="M432.76,352.55c2.1,0,3.41,0.88,3.41,3.62c0,2.38-1.17,3.83-3.44,3.83c-2.15,0-3.47-0.85-3.47-3.54
				C429.26,353.97,430.51,352.55,432.76,352.55z M431.26,354.17c-0.17,0.74-0.26,1.56-0.26,2.24c0,1.18,0.27,2.15,1.88,2.15
				c0.38,0,0.79-0.03,1.26-0.18c0.17-0.62,0.26-1.29,0.26-2.06c0-1.54-0.21-2.33-1.76-2.33
				C432.22,353.99,431.7,354.05,431.26,354.17z"/>
			<path d="M443.86,349.68h1.76v7.88c0,0.51,0.11,0.82,0.7,0.82c0.18,0,0.33-0.02,0.5-0.05v1.56c-0.21,0.05-0.47,0.08-0.88,0.08
				c-1.24,0-2.07-0.45-2.07-2.07V349.68z"/>
			<path d="M457.37,352.55c2.1,0,3.41,0.88,3.41,3.62c0,2.38-1.17,3.83-3.44,3.83c-2.15,0-3.47-0.85-3.47-3.54
				C453.88,353.97,455.12,352.55,457.37,352.55z M455.87,354.17c-0.17,0.74-0.26,1.56-0.26,2.24c0,1.18,0.27,2.15,1.88,2.15
				c0.38,0,0.79-0.03,1.26-0.18c0.17-0.62,0.26-1.29,0.26-2.06c0-1.54-0.21-2.33-1.76-2.33
				C456.83,353.99,456.31,354.05,455.87,354.17z"/>
			<path d="M467.7,361.39c0-0.74,0.47-1.3,1.1-1.65c-0.27-0.2-0.38-0.5-0.38-0.86c0-0.56,0.36-1.03,0.89-1.33
				c-0.85-0.33-1.33-0.95-1.33-2.09c0-1.88,1.17-2.86,3.21-2.86c0.71,0,1.29,0.11,1.73,0.3l0.98-1.39l1.17,1.01
				c-0.39,0.45-0.89,0.76-1.39,0.92c0.42,0.47,0.61,1.12,0.61,1.94c0,1.59-1.26,2.45-3.27,2.45c-0.53,0-0.89,0.03-1.14,0.08
				c-0.05,0.11-0.08,0.23-0.08,0.38c0,0.38,0.24,0.56,0.74,0.56h2.18c1.33,0,2.07,0.59,2.07,1.77c0,1.6-0.97,2.38-3.98,2.38
				C468.41,362.99,467.7,362.46,467.7,361.39z M473.3,361.49c0.03-0.14,0.06-0.26,0.06-0.36c0-0.76-0.2-1.07-2.06-1.07
				c-1.1,0-1.69,0.08-2,0.18c-0.08,0.14-0.12,0.32-0.12,0.54c0,0.54,0.36,0.89,1.83,0.89C471.72,361.68,472.6,361.63,473.3,361.49z
				 M469.69,354c-0.08,0.38-0.11,0.74-0.11,1.09c0,0.89,0.24,1.56,1.51,1.56c0.59,0,1.09-0.05,1.53-0.15
				c0.05-0.36,0.05-0.7,0.05-1.03c0-0.92-0.26-1.59-1.65-1.59C470.53,353.88,470.07,353.93,469.69,354z"/>
			<path d="M481.49,362.33v-1.59c0.47,0.14,1.17,0.21,1.68,0.21c0.32,0,0.65-0.03,0.98-0.11c0.3-0.61,0.5-1.18,0.65-1.68h-1.33
				l-2.22-6.43h1.92l0.76,2.59c0.24,0.8,0.47,1.68,0.67,2.54h0.67c0.18-0.92,0.41-1.77,0.64-2.59l0.71-2.54h1.86l-2.15,6.58
				c-0.73,2.22-1.2,3.18-3.16,3.18C482.73,362.49,482.05,362.46,481.49,362.33z"/>
			<path d="M510.91,359.81v-3.59c-0.51,0.17-1.27,0.3-2.01,0.3c-0.76,0-1.53-0.12-2.1-0.3v3.59h-1.82v-9.08h1.82v4.18h4.12v-4.18
				h1.82v9.08H510.91z"/>
			<path d="M525.5,358.39c-0.83,0.92-1.63,1.57-2.75,1.57c-0.89,0-1.79-0.61-1.79-2.1v-5.13h1.76v4.57c0,0.7,0.32,1.06,0.98,1.06
				c0.47,0,1.01-0.26,1.63-0.76c0.15-0.48,0.17-1,0.17-1.57v-3.3h1.76v7.08h-1.76V358.39z"/>
			<path d="M537.14,359.81h-1.76v-7.08h1.76v1.42c0.83-0.92,1.63-1.57,2.75-1.57c0.79,0,1.57,0.47,1.76,1.62
				c0.85-0.94,1.66-1.62,2.78-1.62c0.89,0,1.8,0.61,1.8,2.1v5.13h-1.76v-4.57c0-0.7-0.3-1.06-0.97-1.06c-0.48,0-1.04,0.26-1.66,0.76
				c-0.14,0.48-0.17,1.01-0.17,1.57v3.3h-1.76v-4.57c0-0.7-0.32-1.06-0.98-1.06c-0.47,0-1.01,0.26-1.63,0.76
				c-0.15,0.48-0.17,1-0.17,1.57V359.81z"/>
			<path d="M558.27,358.66c-0.73,0.8-1.47,1.3-2.48,1.3c-1.09,0-1.97-0.51-1.97-1.97c0-1.15,0.59-2.01,2.5-2.01h1.89v-0.88
				c0-0.82-0.32-1.27-1.14-1.27c-0.29,0-0.71,0.03-1.06,0.11c-0.05,0.24-0.05,0.47-0.05,0.71v0.33h-1.77
				c-0.02-0.09-0.02-0.18-0.02-0.27c0-1.42,1.06-2.16,3.01-2.16c1.79,0,2.75,0.65,2.75,2.21v3.19c0,0.38,0.08,0.59,0.48,0.59
				c0.14,0,0.27-0.02,0.41-0.03v1.38c-0.18,0.03-0.48,0.08-0.85,0.08C559.09,359.97,558.47,359.65,558.27,358.66z M558.03,358.15
				c0.14-0.48,0.18-1,0.18-1.57v-0.03c-0.68,0.32-1.85,0.29-2.59,0.45c-0.05,0.24-0.06,0.5-0.06,0.7c0,0.62,0.2,0.86,0.98,0.86
				C557.02,358.56,557.56,358.41,558.03,358.15z"/>
			<path d="M569.96,359.81h-1.76v-7.08h1.76v1.42c0.83-0.92,1.63-1.57,2.75-1.57c0.89,0,1.79,0.61,1.79,2.1v5.13h-1.76v-4.57
				c0-0.7-0.32-1.06-0.98-1.06c-0.47,0-1.01,0.26-1.63,0.76c-0.15,0.48-0.17,1-0.17,1.57V359.81z"/>
			<path d="M351.15,375.67v-9.08h1.82v9.08H351.15z"/>
			<path d="M362.95,375.67h-1.76v-7.08h1.76v1.42c0.83-0.92,1.63-1.57,2.75-1.57c0.89,0,1.79,0.61,1.79,2.1v5.13h-1.76v-4.57
				c0-0.7-0.32-1.06-0.98-1.06c-0.47,0-1.01,0.26-1.63,0.76c-0.15,0.48-0.17,1-0.17,1.57V375.67z"/>
			<path d="M377.38,375.67h-1.76v-7.08h1.76v1.42c0.83-0.92,1.63-1.57,2.75-1.57c0.89,0,1.79,0.61,1.79,2.1v5.13h-1.76v-4.57
				c0-0.7-0.32-1.06-0.98-1.06c-0.47,0-1.01,0.26-1.63,0.76c-0.15,0.48-0.17,1-0.17,1.57V375.67z"/>
			<path d="M391.8,375.67h-1.76v-7.08h1.76v1.42c0.83-0.92,1.63-1.57,2.75-1.57c0.89,0,1.79,0.61,1.79,2.1v5.13h-1.76v-4.57
				c0-0.7-0.32-1.06-0.98-1.06c-0.47,0-1.01,0.26-1.63,0.76c-0.15,0.48-0.17,1-0.17,1.57V375.67z"/>
			<path d="M407.53,368.41c2.1,0,3.41,0.88,3.41,3.62c0,2.38-1.17,3.83-3.44,3.83c-2.15,0-3.47-0.85-3.47-3.54
				C404.03,369.83,405.27,368.41,407.53,368.41z M406.03,370.03c-0.17,0.74-0.26,1.56-0.26,2.24c0,1.18,0.27,2.15,1.88,2.15
				c0.38,0,0.79-0.03,1.26-0.18c0.17-0.62,0.26-1.29,0.26-2.06c0-1.54-0.21-2.33-1.76-2.33
				C406.98,369.85,406.47,369.91,406.03,370.03z"/>
			<path d="M419.88,375.67l-2.29-7.08h1.92l0.76,2.72c0.3,1.03,0.53,1.92,0.7,2.91h0.58c0.18-0.98,0.39-1.91,0.68-2.91l0.76-2.72
				h1.88l-2.29,7.08H419.88z"/>
			<path d="M435.88,374.52c-0.73,0.8-1.47,1.3-2.48,1.3c-1.09,0-1.97-0.51-1.97-1.97c0-1.15,0.59-2.01,2.5-2.01h1.89v-0.88
				c0-0.82-0.32-1.27-1.14-1.27c-0.29,0-0.71,0.03-1.06,0.11c-0.05,0.24-0.05,0.47-0.05,0.71v0.33h-1.77
				c-0.02-0.09-0.02-0.18-0.02-0.27c0-1.42,1.06-2.16,3.01-2.16c1.79,0,2.75,0.65,2.75,2.21v3.19c0,0.38,0.08,0.59,0.48,0.59
				c0.14,0,0.27-0.02,0.41-0.03v1.38c-0.18,0.03-0.48,0.08-0.85,0.08C436.7,375.82,436.08,375.51,435.88,374.52z M435.64,374.01
				c0.14-0.48,0.18-1,0.18-1.57v-0.03c-0.68,0.32-1.85,0.29-2.59,0.45c-0.05,0.24-0.06,0.5-0.06,0.7c0,0.62,0.2,0.86,0.98,0.86
				C434.62,374.42,435.17,374.26,435.64,374.01z"/>
			<path d="M447.93,368.59h2.78v1.47c-0.89,0-1.91-0.08-2.78-0.27v3.41c0,0.71,0.14,1.2,0.94,1.2c0.2,0,0.38-0.02,0.54-0.05
				c0.14-0.36,0.15-0.8,0.15-1.07h1.53c-0.02,1.69-0.73,2.56-2.56,2.56c-1.41,0-2.36-0.51-2.36-2.33v-3.51h-1.15v-1.39h1.15v-1.71
				h1.76V368.59z"/>
			<path d="M458.31,367.21v-1.68h1.91v1.68H458.31z M458.39,375.67v-7.08h1.76v7.08H458.39z"/>
			<path d="M471.25,368.41c2.1,0,3.41,0.88,3.41,3.62c0,2.38-1.17,3.83-3.44,3.83c-2.15,0-3.47-0.85-3.47-3.54
				C467.76,369.83,469,368.41,471.25,368.41z M469.75,370.03c-0.17,0.74-0.26,1.56-0.26,2.24c0,1.18,0.27,2.15,1.88,2.15
				c0.38,0,0.79-0.03,1.26-0.18c0.17-0.62,0.26-1.29,0.26-2.06c0-1.54-0.21-2.33-1.76-2.33
				C470.71,369.85,470.19,369.91,469.75,370.03z"/>
			<path d="M484.1,375.67h-1.76v-7.08h1.76v1.42c0.83-0.92,1.63-1.57,2.75-1.57c0.89,0,1.79,0.61,1.79,2.1v5.13h-1.76v-4.57
				c0-0.7-0.32-1.06-0.98-1.06c-0.47,0-1.01,0.26-1.63,0.76c-0.15,0.48-0.17,1-0.17,1.57V375.67z"/>
		</g>
		<g>
			<g>
				<g>
					<path d="M236.59,272.6c0,0,0,21.65,0,32.63c0,12.57,13.77,14.44,16.64,21.88c0.65,1.68,2.19,2.85,3.99,2.85h0.27V272.6
						L236.59,272.6z"/>
				</g>
				<g>
					<path d="M326.81,275.37c-1.87-1.78-4.36-2.77-6.94-2.77h-59.74c0,13.33,5.74,20.9,23.55,20.9c6.35,0,33.18,0,49.47,0
						l-75.65,36.45l32.02,0c4.37,0,8.69-0.99,12.63-2.88l30.91-14.9c10.99-5.89,12.84-9.14,12.84-18.67l0,0L326.81,275.37z"/>
				</g>
			</g>
			<g>
				<path d="M423.38,272.6c-14.5,0-12.94,17.16-22.82,17.16h-4.65c-9.89,0-8.32-17.16-22.82-17.16h-26.16c0,12,6.15,20.9,18.8,20.9
					s30.19,0,30.19,0h4.65c0,0,0.02,0,0.05,0l-12.83,7.77v31.22h6.1c8.18,0,14.8-6.63,14.8-14.8l0-24.19c6.22,0,14.92,0,22.06,0
					c12.65,0,18.8-8.9,18.8-20.9L423.38,272.6z"/>
			</g>
			<g>
				<g>
					<path d="M467.19,271.65c-2.87,7.44-16.64,9.31-16.64,21.88c0,10.98,0,36.43,0,36.43l20.9,0l0-61.15h-0.27
						C469.38,268.81,467.84,269.97,467.19,271.65z"/>
				</g>
				<g>
					<g>
						<path d="M551.22,289.05v11.32l-79.76,0v3.74h2.63c2.33,0,4.22,1.89,4.22,4.22V309c0,2.45,1.98,4.43,4.43,4.43l57.22,0
							c2.45,0,4.43-1.98,4.43-4.43v-0.67c0-2.33,1.89-4.22,4.21-4.22l2.62,0v1.11c0,12.57,13.77,14.44,16.64,21.88
							c0.65,1.68,2.19,2.85,3.99,2.85h0.27v-60h-1.81C559.77,269.96,551.22,278.51,551.22,289.05z"/>
					</g>
				</g>
			</g>
			<g>
				<path d="M605.07,268.81c-1.84,0-3.41,1.2-4.04,2.93c-2.87,7.88-16.64,11.87-16.64,24.44c0,10.98,0,36.32,0,36.32h2.3
					c10.28,0,18.61-8.33,18.61-18.61v-45.08H605.07z"/>
			</g>
		</g>
	</g>
</g>
</svg>
